<svg width="335" height="200" viewBox="0 0 335 200" fill="none" xmlns="http://www.w3.org/2000/svg">
<g clip-path="url(#clip0_1_629)">
<path d="M161.305 173.975L161.26 174.033C160.791 174.596 160.54 175.309 160.555 176.042C160.63 176.793 160.911 177.509 161.367 178.11C161.841 178.764 162.386 179.361 162.992 179.893C163.295 180.169 163.613 180.43 163.935 180.688C164.257 180.946 164.584 181.18 164.925 181.405C165.612 181.855 166.33 182.257 167.072 182.608C170.063 184.022 173.343 184.816 176.63 185.465C178.279 185.788 179.94 186.063 181.608 186.362C182.442 186.513 183.277 186.668 184.116 186.866C184.536 186.967 184.956 187.075 185.379 187.217C185.84 187.354 186.275 187.567 186.665 187.847C186.785 187.94 186.891 188.049 186.98 188.171C187.088 188.32 187.16 188.491 187.189 188.673C187.216 188.854 187.199 189.038 187.141 189.212C187.092 189.355 187.025 189.491 186.941 189.617C186.654 190.003 186.304 190.338 185.906 190.608C185.192 191.105 184.442 191.548 183.664 191.936C182.902 192.329 182.134 192.692 181.358 193.043C180.574 193.396 179.776 193.711 178.968 193.997C177.357 194.562 175.715 195.033 174.049 195.409C172.389 195.791 170.713 196.094 169.029 196.333C165.66 196.813 162.26 197.036 158.857 197C157.156 196.975 155.453 196.882 153.756 196.69C152.05 196.508 150.361 196.187 148.708 195.728C147.87 195.493 147.053 195.192 146.263 194.828C145.862 194.643 145.473 194.431 145.099 194.195C144.715 193.958 144.354 193.684 144.023 193.378C143.679 193.063 143.379 192.704 143.131 192.31C143.072 192.206 143.01 192.105 142.956 191.999L142.808 191.671C142.711 191.427 142.654 191.17 142.639 190.908C142.618 190.4 142.734 189.895 142.974 189.446C143.192 189.034 143.465 188.653 143.786 188.315C144.399 187.678 145.085 187.116 145.831 186.641C146.554 186.17 147.303 185.741 148.075 185.356C149.605 184.597 151.182 183.934 152.795 183.372C156.008 182.254 159.3 181.377 162.643 180.749C165.981 180.102 169.362 179.699 172.759 179.542C176.155 179.404 179.587 179.52 182.954 180.199C183.799 180.369 184.633 180.585 185.454 180.847C186.297 181.107 187.107 181.466 187.865 181.917C188.263 182.159 188.626 182.455 188.942 182.796C189.29 183.165 189.53 183.622 189.638 184.117C189.731 184.621 189.677 185.141 189.483 185.615C189.305 186.051 189.059 186.457 188.755 186.816C188.177 187.49 187.512 188.083 186.776 188.578C186.065 189.07 185.322 189.514 184.553 189.908C183.028 190.686 181.448 191.35 179.824 191.893C176.592 192.981 173.256 193.734 169.869 194.14C166.478 194.579 163.044 194.582 159.652 194.149C158.802 194.028 157.965 193.881 157.124 193.692C156.265 193.515 155.427 193.25 154.622 192.9C154.409 192.801 154.204 192.686 154.009 192.555C153.785 192.41 153.59 192.224 153.433 192.008C153.34 191.876 153.273 191.727 153.236 191.57C153.197 191.401 153.198 191.225 153.238 191.056C153.313 190.772 153.465 190.515 153.676 190.312C154.016 189.986 154.404 189.715 154.828 189.51C155.22 189.31 155.623 189.134 156.035 188.981C157.653 188.41 159.315 187.976 161.005 187.685C162.681 187.374 164.367 187.15 166.058 186.983C169.439 186.655 172.84 186.557 176.235 186.688C179.635 186.805 183.02 187.207 186.354 187.889C186.41 187.901 186.462 187.924 186.509 187.956C186.556 187.988 186.596 188.029 186.627 188.077C186.658 188.124 186.68 188.178 186.69 188.234C186.7 188.289 186.7 188.347 186.688 188.402C186.676 188.458 186.654 188.511 186.622 188.558C186.589 188.605 186.548 188.645 186.501 188.676C186.453 188.707 186.4 188.728 186.344 188.739C186.288 188.749 186.231 188.748 186.175 188.737C182.889 188.067 179.552 187.673 176.201 187.561C172.845 187.434 169.486 187.534 166.144 187.86C164.475 188.026 162.812 188.248 161.167 188.554C159.529 188.838 157.917 189.259 156.348 189.812C155.969 189.954 155.599 190.117 155.238 190.302C154.9 190.464 154.59 190.677 154.316 190.934C154.219 191.022 154.147 191.135 154.106 191.26C154.097 191.303 154.097 191.348 154.108 191.391C154.119 191.433 154.14 191.473 154.169 191.506C154.397 191.764 154.683 191.966 155.003 192.094C155.749 192.414 156.526 192.658 157.322 192.821C158.129 193.001 158.955 193.146 159.777 193.262C163.092 193.683 166.448 193.677 169.762 193.245C173.086 192.845 176.36 192.104 179.533 191.035C181.112 190.505 182.651 189.859 184.134 189.101C184.868 188.724 185.576 188.3 186.254 187.831C186.921 187.383 187.524 186.847 188.049 186.238C188.542 185.643 188.877 184.933 188.741 184.299C188.619 183.659 188.042 183.105 187.381 182.697C186.686 182.287 185.944 181.959 185.172 181.722C184.384 181.472 183.582 181.265 182.771 181.103C179.512 180.448 176.142 180.332 172.8 180.471C169.448 180.628 166.113 181.029 162.82 181.669C159.524 182.291 156.278 183.158 153.111 184.262C151.536 184.812 149.996 185.46 148.501 186.201C147.762 186.571 147.045 186.982 146.353 187.433C145.672 187.866 145.046 188.379 144.485 188.959C143.958 189.527 143.546 190.211 143.59 190.852C143.6 191.012 143.635 191.171 143.695 191.32L143.808 191.569C143.849 191.651 143.899 191.728 143.944 191.81C144.147 192.13 144.392 192.422 144.672 192.677C144.961 192.944 145.275 193.181 145.61 193.387C145.95 193.602 146.305 193.794 146.67 193.961C147.414 194.304 148.185 194.587 148.974 194.807C150.576 195.25 152.212 195.559 153.865 195.733C155.524 195.919 157.196 196.011 158.87 196.033C162.223 196.066 165.573 195.844 168.893 195.369C170.551 195.133 172.201 194.833 173.831 194.456C175.46 194.087 177.066 193.625 178.641 193.072C179.426 192.793 180.199 192.488 180.954 192.146C181.716 191.801 182.474 191.442 183.213 191.061C183.946 190.695 184.652 190.277 185.325 189.81C185.628 189.607 185.896 189.357 186.12 189.069C186.177 189 186.21 188.913 186.213 188.823C186.213 188.797 186.17 188.714 186.05 188.621C185.748 188.415 185.417 188.259 185.067 188.156C184.69 188.03 184.292 187.927 183.891 187.831C183.086 187.643 182.261 187.489 181.434 187.34C179.778 187.045 178.107 186.77 176.442 186.445C174.778 186.12 173.114 185.753 171.47 185.287C169.814 184.832 168.199 184.24 166.642 183.516C165.857 183.146 165.099 182.722 164.373 182.247C164.01 182.008 163.653 181.751 163.312 181.479C162.972 181.208 162.641 180.936 162.319 180.643C161.655 180.06 161.058 179.405 160.54 178.689C159.974 177.933 159.63 177.035 159.545 176.094C159.523 175.604 159.598 175.114 159.767 174.653C159.846 174.433 159.944 174.221 160.059 174.018" fill="black"/>
<path d="M160.056 174.016C160.174 173.806 160.307 173.605 160.454 173.414C161.02 172.716 161.688 172.108 162.437 171.612C163.879 170.666 165.411 169.866 167.011 169.222C170.158 167.904 173.383 166.864 176.596 165.82L179.008 165.045C179.807 164.79 180.592 164.52 181.366 164.217C182.136 163.919 182.889 163.58 183.623 163.201C184.34 162.839 185.013 162.395 185.628 161.878C186.208 161.37 186.677 160.739 186.687 160.12C186.714 159.506 186.27 158.879 185.685 158.381C185.066 157.873 184.386 157.443 183.662 157.101C182.92 156.741 182.158 156.421 181.381 156.145C179.806 155.591 178.203 155.121 176.578 154.738C174.95 154.343 173.304 154.006 171.652 153.705C168.345 153.104 165.008 152.643 161.663 152.252C159.991 152.057 158.315 151.88 156.638 151.722C155.808 151.647 154.933 151.555 154.087 151.412C153.234 151.27 152.39 151.077 151.56 150.835C149.888 150.36 148.289 149.657 146.808 148.745C146.066 148.288 145.361 147.772 144.7 147.203C144.035 146.638 143.418 146.018 142.857 145.349C140.606 142.652 139.237 139.33 138.933 135.831C138.628 132.358 139.206 128.864 140.615 125.675C142.01 122.497 144.09 119.666 146.705 117.386C148.003 116.25 149.407 115.241 150.898 114.373C152.39 113.515 153.953 112.786 155.569 112.193C158.775 111.019 162.158 110.209 165.615 110.099C166.478 110.077 167.341 110.095 168.204 110.156C169.064 110.226 169.922 110.335 170.772 110.488C171.62 110.649 172.459 110.848 173.29 111.084C174.116 111.329 174.93 111.606 175.732 111.915C178.938 113.168 181.899 114.909 184.73 116.781C187.562 118.661 190.28 120.683 192.983 122.71C198.379 126.778 203.752 130.85 209.324 134.641C212.105 136.541 214.928 138.376 217.793 140.145C219.232 141.027 220.657 141.911 222.129 142.694C223.596 143.487 225.105 144.198 226.65 144.823C228.185 145.45 229.769 145.948 231.385 146.314C232.97 146.693 234.604 146.824 236.228 146.7C237.005 146.634 237.764 146.438 238.476 146.121C239.152 145.851 239.71 145.349 240.05 144.706C240.39 144.062 240.491 143.319 240.334 142.608C240.196 141.841 239.929 141.104 239.545 140.426C238.73 139.014 237.708 137.732 236.512 136.623C235.309 135.481 234.021 134.432 232.66 133.485C229.906 131.587 226.996 129.926 223.962 128.52C217.896 125.66 211.497 123.514 205.01 121.75C201.763 120.868 198.495 120.093 195.191 119.502C191.896 118.894 188.565 118.503 185.219 118.331C181.889 118.148 178.548 118.313 175.252 118.825C171.983 119.366 168.768 120.35 165.946 122.024C163.13 123.678 160.752 126.103 159.45 129.071C158.13 132.053 157.93 135.411 158.886 138.529C159.355 140.07 160.118 141.507 161.132 142.758C162.137 144.002 163.413 144.999 164.862 145.673C166.314 146.334 167.903 146.637 169.495 146.56C171.107 146.472 172.689 146.088 174.162 145.427C177.17 144.121 179.764 142.018 181.665 139.345C183.561 136.682 184.71 133.52 185.254 130.272C185.769 126.994 185.801 123.657 185.349 120.369C184.91 117.065 184.115 113.818 182.978 110.684C180.729 104.386 177.254 98.5957 172.755 93.6485C170.513 91.1928 167.97 89.0303 165.186 87.2121C162.417 85.3978 159.371 84.0462 156.167 83.2103C154.57 82.8021 152.94 82.5405 151.295 82.4286C149.657 82.3096 148.01 82.363 146.383 82.588C144.769 82.813 143.192 83.2532 141.694 83.8969C140.204 84.5445 138.817 85.407 137.576 86.457C135.088 88.5553 133.239 91.363 131.972 94.3959C130.725 97.4685 129.932 100.706 129.617 104.007C129.281 107.322 129.296 110.662 129.662 113.974C130.014 117.287 130.708 120.555 131.733 123.726C132.724 126.888 134.173 129.888 136.034 132.629C136.503 133.299 137.01 133.943 137.551 134.557C137.823 134.86 138.1 135.157 138.39 135.442C138.687 135.724 138.979 136.017 139.289 136.287C140.508 137.393 141.828 138.382 143.232 139.24C146.034 140.963 149.17 142.069 152.432 142.485C155.698 142.875 159.009 142.576 162.152 141.608C165.305 140.627 168.262 139.102 170.89 137.101C173.532 135.095 175.889 132.741 177.899 130.101C179.921 127.461 181.654 124.612 183.069 121.602C183.759 120.111 184.297 118.555 184.676 116.956C185.444 113.757 185.552 110.435 184.995 107.193C184.866 106.383 184.668 105.586 184.46 104.794C184.229 104.008 183.985 103.224 183.677 102.464C183.081 100.938 182.327 99.4787 181.429 98.1085C180.529 96.7438 179.479 95.4847 178.298 94.3547C175.946 92.1072 173.027 90.436 169.866 89.7744C169.077 89.6097 168.278 89.5053 167.473 89.4621C165.044 89.346 162.62 89.7903 160.389 90.7606C158.888 91.4003 157.466 92.2125 156.152 93.1808C154.831 94.1604 153.597 95.2535 152.465 96.4477C150.161 98.8154 148.239 101.528 146.77 104.487C145.346 107.43 144.582 110.694 144.837 113.914C144.962 115.524 145.336 117.105 145.944 118.6C146.556 120.101 147.375 121.509 148.374 122.785C150.369 125.358 153.012 127.412 155.903 128.966C158.826 130.51 161.965 131.604 165.214 132.209C168.471 132.828 171.793 133.024 175.1 132.794C175.513 132.767 175.926 132.736 176.338 132.691L176.956 132.629L177.573 132.55C177.984 132.502 178.393 132.438 178.803 132.372C179.212 132.307 179.613 132.239 180.01 132.155C181.6 131.822 183.139 131.284 184.591 130.555C187.499 129.059 190.01 126.894 191.919 124.239C193.847 121.566 195.311 118.587 196.248 115.428C197.213 112.264 197.724 108.979 197.765 105.671C197.789 104.025 197.676 102.379 197.429 100.752C197.191 99.1381 196.773 97.5563 196.182 96.036C195.619 94.5449 194.782 93.172 193.716 91.9874C192.684 90.8447 191.323 90.0513 189.82 89.717C188.287 89.4322 186.707 89.5541 185.235 90.0706C185.045 90.1277 184.861 90.1999 184.67 90.2647C184.466 90.3372 184.263 90.4142 184.058 90.4828C183.65 90.6259 183.238 90.7566 182.825 90.8836C181.999 91.1356 181.167 91.3553 180.329 91.5529C176.989 92.3085 173.589 92.774 170.168 92.9441C166.762 93.1277 163.349 93.1036 159.946 92.8719C156.545 92.6461 153.16 92.2235 149.807 91.6063C146.446 90.9959 143.132 90.1466 139.891 89.0647C136.616 87.9958 133.478 86.5446 130.542 84.7412C129.059 83.8147 127.679 82.7313 126.427 81.5097C125.142 80.2646 124.088 78.8019 123.313 77.1891C122.535 75.5369 122.163 73.7228 122.228 71.8978C122.289 70.0829 122.743 68.3029 123.559 66.6811C123.975 65.8718 124.483 65.1141 125.075 64.4234C125.666 63.7404 126.328 63.122 127.05 62.5786C128.479 61.5163 130.07 60.6916 131.761 60.1364C132.592 59.8563 133.439 59.6242 134.296 59.441C135.152 59.2628 136.014 59.1284 136.878 59.0304C138.603 58.8482 140.34 58.8072 142.072 58.9077C145.527 59.1114 148.936 59.8014 152.198 60.9573C155.486 62.09 158.562 63.7625 161.301 65.9063C161.979 66.4558 162.634 67.0359 163.258 67.6513C163.878 68.2742 164.463 68.9309 165.01 69.6184C165.552 70.3116 166.046 71.0577 166.497 71.7647C166.957 72.4818 167.408 73.2093 167.842 73.9503C168.748 75.4422 169.508 77.0172 170.113 78.6539C170.42 79.5108 170.628 80.4001 170.732 81.3043C170.843 82.256 170.765 83.2203 170.5 84.1412C170.219 85.0691 169.738 85.9246 169.093 86.6483C168.473 87.3353 167.76 87.9322 166.975 88.4217C165.467 89.3365 163.848 90.0552 162.158 90.5603C158.85 91.5962 155.477 92.1805 152.106 92.6427C148.733 93.0971 145.352 93.397 141.97 93.6286C135.206 94.0817 128.44 94.2562 121.678 94.33L116.607 94.3614C114.912 94.3614 113.243 94.3661 111.562 94.4092C108.207 94.4912 104.856 94.6793 101.537 95.0588C99.8774 95.2501 98.2257 95.4878 96.5963 95.8025C94.9759 96.1042 93.3777 96.515 91.8127 97.0323C91.0498 97.2886 90.3048 97.5952 89.5824 97.9499C88.8961 98.2777 88.2587 98.6995 87.6888 99.2033C87.4441 99.4265 87.2341 99.685 87.0659 99.9704C86.9287 100.206 86.8555 100.473 86.8535 100.746C86.848 101.248 87.1857 101.822 87.7032 102.321C88.2636 102.838 88.8926 103.276 89.5723 103.621C90.2834 103.995 91.0198 104.318 91.776 104.588C93.325 105.137 94.9138 105.566 96.5286 105.87C99.8004 106.481 103.117 106.818 106.445 106.878C113.123 107.038 119.825 106.389 126.423 105.226C129.724 104.641 133.001 103.921 136.249 103.084L141.135 101.783L143.577 101.126L146.013 100.445C149.263 99.5515 152.499 98.6033 155.737 97.6623C158.968 96.6955 162.2 95.7351 165.419 94.7271C171.861 92.7296 178.277 90.6496 184.668 88.487C191.052 86.3208 197.427 84.0903 203.731 81.7344L203.74 81.7312C203.855 81.6866 203.977 81.6653 204.1 81.6684C204.223 81.6716 204.344 81.6991 204.456 81.7495C204.569 81.7999 204.67 81.872 204.754 81.9618C204.838 82.0516 204.904 82.1572 204.947 82.2725C204.99 82.3878 205.01 82.5105 205.005 82.6335C205 82.7565 204.971 82.8773 204.919 82.989C204.867 83.1006 204.794 83.2009 204.703 83.2839C204.612 83.367 204.506 83.4312 204.39 83.4727C198.041 85.8398 191.664 88.0647 185.258 90.2326C178.853 92.3949 172.42 94.4745 165.96 96.4713C162.727 97.4798 159.486 98.44 156.247 99.4067C153 100.348 149.754 101.295 146.493 102.189L144.051 102.87L141.601 103.527L136.696 104.83C133.404 105.676 130.082 106.404 126.733 106.994C120.036 108.169 113.227 108.824 106.397 108.658C102.97 108.593 99.554 108.242 96.1847 107.61C94.4802 107.286 92.8032 106.832 91.1685 106.25C90.3349 105.951 89.5233 105.593 88.7397 105.18C87.9137 104.757 87.1506 104.221 86.4723 103.587C86.1041 103.234 85.7891 102.83 85.5372 102.387C85.2543 101.891 85.1009 101.332 85.0914 100.762C85.0914 100.185 85.241 99.6192 85.5255 99.1183C85.7824 98.6725 86.1059 98.2687 86.4847 97.9207C87.1783 97.3009 87.956 96.7823 88.7946 96.3802C89.588 95.9899 90.4064 95.6528 91.2445 95.3709C92.8862 94.8286 94.5627 94.3981 96.2625 94.0825C97.9482 93.7571 99.6414 93.5152 101.336 93.3213C104.727 92.9361 108.125 92.7486 111.519 92.6682C113.214 92.6259 114.922 92.6225 116.602 92.6235L121.66 92.597C128.401 92.529 135.141 92.3601 141.854 91.916C145.209 91.6889 148.558 91.3938 151.878 90.9492C155.192 90.4976 158.5 89.9234 161.642 88.9399C163.192 88.4799 164.677 87.8252 166.062 86.9914C166.713 86.5886 167.304 86.0969 167.82 85.5306C168.305 84.991 168.666 84.352 168.878 83.6581C169.296 82.2828 169.039 80.7067 168.518 79.2074C167.95 77.6744 167.237 76.199 166.389 74.8011C165.971 74.0839 165.531 73.3764 165.081 72.6723C164.624 71.9551 164.184 71.2935 163.687 70.6553C163.183 70.0212 162.644 69.4153 162.073 68.8404C161.495 68.2696 160.885 67.7289 160.252 67.2144C157.661 65.186 154.751 63.6029 151.64 62.53C148.528 61.4246 145.275 60.7635 141.978 60.5661C138.698 60.3858 135.363 60.6633 132.293 61.7021C130.769 62.1992 129.335 62.9389 128.047 63.8928C126.782 64.8268 125.748 66.0379 125.023 67.4335C124.317 68.84 123.923 70.3831 123.87 71.9565C123.813 73.5229 124.131 75.0803 124.799 76.4983C125.493 77.9359 126.435 79.2393 127.583 80.3482C128.75 81.4874 130.037 82.4979 131.42 83.3622C134.245 85.0975 137.264 86.4943 140.415 87.524C143.582 88.583 146.82 89.415 150.105 90.0135C153.395 90.6214 156.717 91.0382 160.056 91.2618C163.392 91.4915 166.74 91.5176 170.079 91.3399C173.407 91.1772 176.715 90.7273 179.965 89.9954C180.771 89.8055 181.572 89.5949 182.361 89.3545C182.755 89.2334 183.148 89.1091 183.537 88.9734C183.732 88.908 183.924 88.8352 184.117 88.7665C184.326 88.6953 184.535 88.6145 184.749 88.5502C186.484 87.95 188.347 87.8151 190.15 88.159C191.062 88.3524 191.936 88.6938 192.738 89.1696C193.528 89.6425 194.246 90.2249 194.873 90.8995C196.075 92.2296 197.017 93.7727 197.653 95.4493C198.286 97.0804 198.734 98.7776 198.989 100.509C199.248 102.223 199.366 103.955 199.34 105.688C199.295 109.146 198.758 112.58 197.747 115.887C196.755 119.216 195.207 122.354 193.171 125.168C191.115 128.019 188.412 130.341 185.285 131.945C183.715 132.732 182.048 133.312 180.329 133.672C179.901 133.764 179.466 133.839 179.045 133.902C178.62 133.97 178.195 134.035 177.768 134.085L177.129 134.166L176.487 134.23C176.059 134.276 175.631 134.307 175.201 134.336C171.763 134.573 168.308 134.365 164.922 133.719C161.521 133.082 158.236 131.934 155.178 130.313C152.134 128.674 149.323 126.496 147.172 123.719C146.087 122.332 145.2 120.801 144.536 119.169C143.871 117.53 143.463 115.797 143.327 114.033C143.05 110.501 143.896 106.961 145.411 103.84C146.95 100.737 148.965 97.8947 151.381 95.414C152.575 94.1567 153.876 93.0061 155.27 91.9752C156.678 90.9395 158.202 90.071 159.81 89.3874C162.247 88.3323 164.893 87.8508 167.545 87.9797C168.427 88.0278 169.304 88.1432 170.169 88.325C173.633 89.0536 176.792 90.8775 179.311 93.2881C180.571 94.4955 181.692 95.8408 182.652 97.2987C183.606 98.7556 184.406 100.308 185.038 101.93C185.364 102.736 185.623 103.568 185.866 104.4C186.087 105.24 186.295 106.085 186.432 106.944C187.02 110.382 186.903 113.903 186.086 117.293C185.684 118.984 185.114 120.63 184.384 122.207C183.651 123.76 182.837 125.273 181.944 126.739C181.056 128.207 180.086 129.624 179.037 130.982C176.946 133.723 174.494 136.167 171.747 138.249C168.985 140.347 165.878 141.945 162.566 142.972C159.232 143.996 155.72 144.309 152.257 143.893C148.796 143.449 145.469 142.274 142.498 140.444C141.02 139.54 139.63 138.497 138.347 137.331C138.021 137.046 137.717 136.741 137.402 136.442C137.09 136.134 136.791 135.814 136.499 135.488C135.924 134.835 135.385 134.15 134.887 133.436C132.947 130.58 131.438 127.454 130.406 124.159C129.354 120.895 128.643 117.532 128.282 114.122C127.908 110.713 127.896 107.274 128.245 103.862C128.576 100.427 129.406 97.0594 130.707 93.8639C132.04 90.6804 134.005 87.6817 136.696 85.4145C138.039 84.28 139.54 83.3483 141.153 82.6491C142.762 81.9582 144.457 81.4859 146.191 81.2449C147.912 81.0077 149.653 80.952 151.386 81.0788C153.112 81.1972 154.824 81.4728 156.5 81.9022C159.843 82.7771 163.023 84.1901 165.913 86.086C168.79 87.9677 171.417 90.2052 173.734 92.7454C176.048 95.2713 178.095 98.0294 179.843 100.976C181.596 103.915 183.061 107.018 184.217 110.239C185.383 113.462 186.198 116.803 186.647 120.201C187.113 123.617 187.076 127.083 186.537 130.488C185.964 133.888 184.752 137.242 182.72 140.093C181.708 141.521 180.503 142.803 179.14 143.9C177.777 144.996 176.275 145.906 174.673 146.607C173.055 147.329 171.318 147.747 169.549 147.84C167.754 147.925 165.964 147.58 164.329 146.835C162.704 146.077 161.274 144.959 160.147 143.565C159.029 142.185 158.189 140.602 157.673 138.903C156.629 135.493 156.851 131.821 158.296 128.561C159.014 126.95 160.001 125.473 161.214 124.193C162.418 122.923 163.796 121.83 165.306 120.946C168.308 119.17 171.669 118.154 175.049 117.596C178.431 117.073 181.859 116.905 185.277 117.095C192.093 117.432 198.795 118.788 205.329 120.571C211.864 122.355 218.322 124.526 224.476 127.434C227.571 128.873 230.538 130.571 233.346 132.511C234.756 133.494 236.09 134.583 237.336 135.769C238.619 136.962 239.715 138.343 240.586 139.863C241.034 140.659 241.343 141.526 241.501 142.426C241.697 143.388 241.552 144.389 241.092 145.256C240.632 146.124 239.885 146.805 238.979 147.183C238.147 147.558 237.257 147.789 236.347 147.867C234.599 148.002 232.84 147.864 231.135 147.456C229.456 147.074 227.812 146.554 226.219 145.903C224.634 145.259 223.087 144.529 221.583 143.714C220.074 142.909 218.628 142.01 217.189 141.127C214.309 139.348 211.471 137.501 208.678 135.587C203.083 131.774 197.69 127.68 192.306 123.613C189.608 121.588 186.905 119.574 184.111 117.717C181.317 115.866 178.42 114.164 175.329 112.954C174.556 112.653 173.772 112.388 172.98 112.152C172.185 111.924 171.383 111.734 170.571 111.58C169.759 111.434 168.941 111.329 168.12 111.261C167.297 111.204 166.473 111.185 165.647 111.205C162.344 111.307 159.072 112.082 155.946 113.224C154.39 113.793 152.885 114.494 151.447 115.319C150.018 116.15 148.671 117.116 147.425 118.204C144.928 120.378 142.942 123.076 141.608 126.106C140.27 129.127 139.718 132.437 140.003 135.728C140.284 139.01 141.564 142.127 143.672 144.658C144.196 145.284 144.772 145.865 145.394 146.393C146.013 146.927 146.673 147.411 147.369 147.84C148.767 148.702 150.277 149.367 151.856 149.816C152.647 150.047 153.451 150.231 154.263 150.367C155.082 150.506 155.887 150.591 156.738 150.669C158.422 150.831 160.104 151.009 161.785 151.204C165.146 151.599 168.503 152.065 171.839 152.674C173.508 152.979 175.171 153.321 176.824 153.722C178.486 154.115 180.126 154.598 181.736 155.167C182.549 155.457 183.346 155.792 184.122 156.171C184.926 156.551 185.679 157.03 186.365 157.597C186.729 157.903 187.045 158.263 187.3 158.665C187.583 159.108 187.73 159.624 187.723 160.15C187.699 160.668 187.533 161.17 187.244 161.601C186.983 161.993 186.671 162.347 186.314 162.654C185.637 163.226 184.895 163.716 184.104 164.115C183.337 164.512 182.549 164.867 181.744 165.177C180.945 165.49 180.133 165.769 179.324 166.025L176.913 166.799C173.706 167.838 170.495 168.872 167.41 170.162C165.874 170.778 164.403 171.544 163.017 172.448C162.376 172.872 161.8 173.386 161.305 173.975" fill="black"/>
</g>
<g clip-path="url(#clip1_1_629)">
<path d="M198.815 32.8604C198.815 32.8604 183.444 48.9878 195.347 62.4589C207.251 75.9301 212.611 61.8282 210.228 57.2334C208.63 54.1509 208.955 49.0032 213.759 45.5288C218.564 42.0543 223.276 43.1225 234.081 48.7839C244.886 54.4453 245.878 35.6237 245.692 35.4132C245.506 35.2027 222.005 12.8518 220.975 13.3833C219.946 13.9149 198.815 32.8604 198.815 32.8604Z" fill="#FFB400"/>
<path d="M280.536 92.6679C287.254 84.1456 294.545 72.8766 301.508 66.7553C304.324 64.2806 327.006 48.0848 330.619 44.5339C334.75 40.4764 331.943 29.9077 320.734 18.0706C309.525 6.23354 302.824 5.01668 299.523 6.79653C297.905 7.66887 290.546 17.1804 287.168 20.9234C286.381 21.7982 285.81 22.3566 285.579 22.4176C285.358 22.4773 284.606 22.2708 283.454 21.8546C278.283 19.9826 265.046 13.8421 255.783 8.21801C244.757 1.52413 231.457 -1.06411 225.161 7.08696C211.325 8.40293 204.582 17.3206 201.763 20.9205C198.944 24.5204 198.308 31.4368 199.187 33.2806C202.996 32.9246 217.089 36.9921 230.646 46.3928C244.203 55.7935 257.19 64.9121 258.435 76.5671C259.311 84.7723 257.135 90.7974 248.783 93.651C240.094 96.6206 236.289 92.6652 231.434 96.9323C224.837 102.731 231.381 113.798 247.505 113.846C264.045 113.893 273.553 101.526 280.536 92.6679Z" fill="#FFB400"/>
<path d="M328.011 40.0973C330.167 38.202 326.17 30.1632 319.082 22.1421C311.994 14.121 304.5 9.15503 302.343 11.0503C300.187 12.9456 304.185 20.9844 311.273 29.0055C318.361 37.0266 325.855 41.9926 328.011 40.0973Z" fill="#F04E23"/>
<path d="M318.435 27.9457C319.181 27.2898 318.454 25.2503 316.81 23.3903C315.167 21.5304 313.229 20.5544 312.483 21.2104C311.737 21.8663 312.464 23.9058 314.108 25.7657C315.751 27.6257 317.688 28.6017 318.435 27.9457Z" fill="white"/>
<path d="M288.843 26.256C289.095 25.2345 289.03 24.1607 288.656 23.177C288.358 22.3132 287.846 21.5384 287.168 20.9248C286.381 21.7995 285.809 22.358 285.578 22.419C285.357 22.4787 284.605 22.2722 283.453 21.856C283.425 21.9458 283.402 22.0372 283.384 22.1296C283.234 23.079 283.325 24.0507 283.648 24.9561C283.972 25.8614 284.518 26.6715 285.236 27.3122C285.897 27.8526 286.652 28.1116 287.362 27.9229C288.072 27.7343 288.595 27.1209 288.843 26.256Z" fill="#F04E23"/>
<path d="M242.266 106.686C241.732 108.105 239.544 108.598 237.381 107.787C235.219 106.976 233.9 105.167 234.436 103.748C234.972 102.328 237.158 101.835 239.321 102.647C241.483 103.459 242.802 105.266 242.266 106.686Z" fill="#F04E23"/>
<path d="M243.587 27.7271C243.521 27.8158 243.316 27.807 242.991 27.7095C242.54 27.5584 242.099 27.3805 241.67 27.1766C241.385 27.0638 241.073 26.9341 240.735 26.7873L240.211 26.5553C240.029 26.4775 239.832 26.4084 239.634 26.3293C239.233 26.1772 238.816 25.9973 238.364 25.8289L236.925 25.3203C236.417 25.1535 235.878 24.9974 235.324 24.8199C234.767 24.6505 234.175 24.5108 233.573 24.3403C232.965 24.186 232.329 24.0568 231.681 23.9023C231.023 23.7834 230.352 23.643 229.657 23.5314C228.96 23.4355 228.251 23.3046 227.52 23.2383C227.154 23.1997 226.786 23.1525 226.413 23.1176L225.283 23.0377C223.726 22.9313 222.162 22.9286 220.604 23.0294C219.07 23.1329 217.549 23.3769 216.06 23.7581C214.647 24.1067 213.26 24.5485 211.906 25.0805C210.675 25.562 209.469 26.1076 208.295 26.7149C207.197 27.301 206.179 27.8718 205.288 28.4563C204.384 29.0241 203.594 29.5855 202.897 30.0817C202.208 30.5879 201.609 31.0289 201.123 31.399C200.624 31.7565 200.242 32.0467 199.948 32.2137C199.654 32.3808 199.458 32.4381 199.374 32.3656C199.29 32.2931 199.323 32.0962 199.465 31.784C199.676 31.3403 199.932 30.9194 200.229 30.5277C200.682 29.9022 201.174 29.306 201.702 28.7425C202.404 27.9946 203.151 27.2899 203.938 26.6323C204.895 25.8292 205.904 25.0891 206.957 24.4168C208.173 23.6451 209.441 22.9582 210.753 22.3612C212.206 21.6959 213.711 21.1486 215.253 20.7244C216.928 20.2495 218.648 19.9507 220.385 19.8329C222.098 19.7212 223.817 19.7465 225.526 19.9083L226.746 20.0335C227.147 20.0847 227.543 20.1497 227.936 20.2078C228.721 20.3119 229.478 20.4873 230.219 20.6341C230.957 20.7953 231.669 20.9906 232.361 21.1688C233.045 21.3833 233.711 21.5762 234.345 21.7984C234.974 22.0364 235.586 22.2471 236.159 22.4912C236.73 22.7443 237.279 22.9782 237.793 23.2258L239.234 23.9835C239.681 24.2372 240.089 24.5042 240.471 24.7434C240.662 24.8665 240.848 24.979 241.019 25.101L241.506 25.4666C241.815 25.7019 242.093 25.9203 242.339 26.1218C242.711 26.4454 243.056 26.8004 243.367 27.1827C243.577 27.4553 243.653 27.6384 243.587 27.7271Z" fill="#F04E23"/>
<path d="M246.168 13.1576C246.031 13.3314 245.649 13.3055 245.085 13.1171C244.805 13.0191 244.47 12.8939 244.096 12.7335L243.506 12.467C243.297 12.3757 243.078 12.2764 242.851 12.1691L241.377 11.4748C240.843 11.2408 240.289 10.9648 239.692 10.7146C239.102 10.4463 238.475 10.1948 237.829 9.93073L236.837 9.54891L235.811 9.18681L234.777 8.85775C234.436 8.75118 234.097 8.66831 233.766 8.56999C233.436 8.46581 233.105 8.40879 232.784 8.323C232.464 8.2372 232.146 8.17672 231.836 8.11491C231.218 7.97183 230.624 7.89802 230.064 7.79517C229.505 7.73549 228.978 7.63531 228.495 7.60307C228.252 7.57838 228.02 7.55173 227.798 7.52313L227.191 7.46079C226.82 7.42588 226.509 7.40323 226.247 7.39018C225.728 7.35847 225.375 7.36353 225.247 7.17516C225.217 7.11109 225.205 7.03991 225.212 6.96942C225.22 6.89893 225.247 6.83184 225.29 6.77549C225.433 6.54604 225.626 6.35162 225.854 6.20663C226.193 5.9833 226.561 5.80824 226.948 5.68653C227.166 5.61432 227.398 5.54798 227.638 5.49203C227.878 5.44051 228.133 5.39024 228.403 5.34122C228.993 5.23838 229.588 5.17217 230.186 5.14298C230.872 5.11882 231.56 5.13546 232.244 5.19281C232.606 5.22105 232.978 5.25276 233.351 5.31804C233.724 5.38332 234.112 5.42462 234.493 5.5184C234.876 5.60713 235.27 5.68733 235.66 5.79657C236.048 5.91114 236.443 6.02598 236.839 6.15361L237.99 6.57832C238.362 6.73286 238.723 6.89432 239.079 7.05233C239.78 7.38698 240.447 7.72696 241.054 8.09546C241.671 8.44716 242.222 8.83511 242.737 9.19267C243.238 9.57182 243.706 9.92033 244.099 10.2798C244.3 10.4556 244.487 10.6256 244.662 10.7897C244.835 10.9563 244.992 11.1215 245.137 11.2763C245.392 11.5397 245.625 11.8227 245.835 12.1228C246.183 12.6263 246.306 12.9842 246.168 13.1576Z" fill="#F04E23"/>
<path d="M259.605 108.475C259.52 108.568 259.415 108.64 259.297 108.685C259.179 108.73 259.052 108.747 258.927 108.733C258.752 108.731 258.577 108.706 258.408 108.66C258.2 108.607 257.996 108.536 257.8 108.447C257.306 108.221 256.844 107.934 256.424 107.591C256.177 107.392 255.942 107.179 255.721 106.952C255.242 106.47 254.823 105.933 254.471 105.352C254.305 105.083 254.156 104.803 254.023 104.516C253.793 104.026 253.626 103.509 253.528 102.977C253.489 102.765 253.469 102.551 253.469 102.336C253.465 102.161 253.483 101.986 253.524 101.816C253.542 101.692 253.589 101.573 253.661 101.47C253.734 101.367 253.829 101.283 253.941 101.224C254.059 101.184 254.184 101.169 254.308 101.182C254.432 101.194 254.552 101.233 254.66 101.296C254.808 101.369 254.949 101.454 255.083 101.55C255.231 101.655 255.377 101.782 255.537 101.921C255.885 102.241 256.214 102.58 256.523 102.937C256.698 103.129 256.866 103.338 257.047 103.55C257.222 103.766 257.405 103.986 257.581 104.22C257.765 104.448 257.935 104.68 258.102 104.902C258.262 105.128 258.426 105.342 258.57 105.558C258.841 105.945 259.091 106.346 259.317 106.76C259.413 106.949 259.5 107.122 259.566 107.291C259.627 107.443 259.675 107.601 259.71 107.761C259.744 107.881 259.753 108.007 259.735 108.13C259.717 108.253 259.673 108.371 259.605 108.475Z" fill="#F04E23"/>
<path d="M262.026 104.596C261.361 105.181 260.137 104.881 259.293 103.926C258.449 102.97 258.304 101.722 258.97 101.137C259.635 100.552 260.859 100.852 261.703 101.808C262.547 102.763 262.691 104.011 262.026 104.596Z" fill="#F04E23"/>
<path d="M209.629 38.5828C209.507 38.6175 209.379 38.6229 209.255 38.5987C209.131 38.5745 209.014 38.5213 208.914 38.4435C208.766 38.3481 208.63 38.2344 208.511 38.1051C208.36 37.9487 208.224 37.7793 208.104 37.5988C207.801 37.1441 207.557 36.6529 207.379 36.1369C207.272 35.8362 207.184 35.5296 207.113 35.2187C206.957 34.5521 206.881 33.8694 206.885 33.1849C206.885 32.8661 206.903 32.5475 206.94 32.2308C207 31.6881 207.128 31.1552 207.323 30.6449C207.4 30.4424 207.495 30.2472 207.607 30.0614C207.695 29.909 207.802 29.7683 207.926 29.6428C208.006 29.5451 208.107 29.4676 208.223 29.4166C208.339 29.3657 208.465 29.3428 208.591 29.3497C208.713 29.3771 208.828 29.4305 208.927 29.5062C209.027 29.582 209.109 29.6783 209.167 29.7886C209.255 29.9292 209.331 30.0769 209.395 30.2301C209.467 30.3979 209.525 30.585 209.589 30.7896C209.719 31.2488 209.822 31.715 209.899 32.1858C209.948 32.4439 209.982 32.7139 210.025 32.992C210.061 33.271 210.103 33.558 210.132 33.8534C210.17 34.1465 210.193 34.437 210.22 34.7167C210.24 34.9976 210.266 35.2683 210.276 35.5307C210.305 36.0069 210.308 36.4843 210.283 36.9607C210.267 37.1739 210.251 37.3692 210.218 37.5488C210.19 37.7118 210.148 37.8722 210.094 38.0284C210.061 38.1487 210.002 38.2605 209.922 38.3562C209.842 38.4519 209.742 38.5292 209.629 38.5828Z" fill="#F04E23"/>
<path d="M213.012 33.5324C212.795 33.6124 212.561 33.6343 212.333 33.5961C212.104 33.5578 211.89 33.4606 211.711 33.3142C211.242 32.9328 210.909 32.4114 210.76 31.8267C210.61 31.2421 210.654 30.6251 210.883 30.0667C210.97 29.8527 211.111 29.6651 211.293 29.5226C211.476 29.38 211.692 29.2874 211.921 29.2541C212.145 29.2408 212.369 29.2764 212.577 29.3582C212.786 29.4401 212.974 29.5663 213.128 29.7281C213.489 30.09 213.746 30.5418 213.873 31.0365C213.999 31.5312 213.99 32.0507 213.846 32.5407C213.788 32.7565 213.683 32.957 213.539 33.1283C213.395 33.2996 213.215 33.4375 213.012 33.5324Z" fill="#F04E23"/>
<path d="M219.513 9.65895C219.636 9.86679 219.674 10.114 219.62 10.3493C219.593 10.494 219.555 10.6365 219.507 10.7756C219.455 10.9267 219.385 11.0772 219.311 11.2432C219.137 11.5979 218.945 11.9435 218.736 12.2786C218.63 12.4651 218.503 12.6453 218.384 12.84C218.257 13.0287 218.134 13.228 217.995 13.4227C217.866 13.6247 217.728 13.8136 217.599 14.0017C217.463 14.1848 217.343 14.3692 217.21 14.5381C216.977 14.8572 216.728 15.1641 216.463 15.4576C216.336 15.5881 216.223 15.7099 216.102 15.8141C215.991 15.9108 215.872 15.9992 215.748 16.0787C215.55 16.2177 215.306 16.275 215.066 16.2385C214.949 16.2067 214.84 16.1487 214.748 16.0689C214.656 15.9891 214.583 15.8895 214.535 15.7776C214.46 15.6332 214.407 15.4787 214.376 15.319C214.334 15.1253 214.313 14.9276 214.312 14.7294C214.311 14.2305 214.389 13.7346 214.542 13.2597C214.63 12.9815 214.738 12.7102 214.866 12.4478C215.135 11.8811 215.488 11.3582 215.914 10.8966C216.11 10.6802 216.321 10.4784 216.547 10.2928C216.931 9.97297 217.363 9.7152 217.827 9.52893C218.011 9.45474 218.203 9.40026 218.398 9.3664C218.558 9.33453 218.722 9.326 218.884 9.34108C219.006 9.34334 219.126 9.37311 219.235 9.42816C219.344 9.48321 219.439 9.56211 219.513 9.65895Z" fill="#F04E23"/>
</g>
<g clip-path="url(#clip2_1_629)">
<path d="M110.11 83.5697C104.171 70.8544 86.1247 60.7083 67.519 69.7419C62.8585 66.1031 50.2328 67.9776 42.2589 77.8112C34.285 87.6448 31.8325 102.847 29.9207 107.509C28.0088 112.171 26.8761 116.575 18.1307 123.21C9.38532 129.845 4.45623 130.612 3.32673 133.29C2.19723 135.967 3.6452 146.424 13.3006 159.06C21.5593 169.867 30.2179 171.884 33.8551 168.954C37.4922 166.025 48.7575 153.087 52.9101 151.712C57.0626 150.338 72.3602 152.185 92.523 142.636C112.436 133.206 116.953 115.61 110.215 110.688C103.315 105.649 97.4279 112.232 92.5755 117.579C87.7231 122.925 80.0194 127.489 72.939 123.5C65.8587 119.51 61.1247 109.563 66.9383 99.2933C72.7519 89.0234 79.9403 82.9034 88.6637 86.6371C96.6784 90.0672 97.4345 100.268 102.784 105.118C108.134 109.968 121.514 107.986 110.11 83.5697Z" fill="#FFB400"/>
<path d="M29.0424 167.609C31.1879 166.074 27.8495 157.739 21.586 148.992C15.3225 140.244 8.50574 134.397 6.36031 135.932C4.21489 137.467 7.55324 145.802 13.8167 154.549C20.0802 163.297 26.897 169.143 29.0424 167.609Z" fill="#F04E23"/>
<path d="M19.4693 155.812C20.3705 155.167 19.905 152.974 18.4295 150.914C16.954 148.853 15.0273 147.705 14.1261 148.35C13.2249 148.994 13.6904 151.187 15.1659 153.248C16.6414 155.309 18.5681 156.457 19.4693 155.812Z" fill="white"/>
<path d="M44.722 98.7267C44.6129 98.7111 44.528 98.562 44.4664 98.2898C44.3905 97.9034 44.3549 97.5101 44.3602 97.1163C44.3583 96.5039 44.3916 95.8918 44.46 95.2831C44.4913 94.9261 44.5479 94.5481 44.61 94.1468C44.6668 93.7441 44.7488 93.3226 44.8398 92.8804C45.0171 91.9945 45.2716 91.0359 45.5829 90.0157C45.9281 88.9325 46.328 87.8676 46.7811 86.8249C47.2887 85.6725 47.8576 84.5479 48.4852 83.4561C49.1648 82.2829 49.9136 81.151 50.7275 80.0664C51.5598 78.97 52.4775 77.9412 53.4721 76.9894C54.3975 76.1171 55.377 75.3041 56.4049 74.5552C56.9036 74.2119 57.3813 73.8655 57.8704 73.57C58.113 73.4191 58.3495 73.2663 58.587 73.1257L59.2966 72.7223C60.1607 72.2415 61.0488 71.8053 61.9574 71.4153C62.7918 71.0665 63.5561 70.7808 64.2398 70.5713C64.5792 70.4594 64.8995 70.3686 65.1986 70.2973C65.4977 70.2259 65.7692 70.1596 66.0163 70.1087C66.4023 70.0296 66.795 69.9876 67.1891 69.9832C67.468 69.9891 67.6309 70.0426 67.6681 70.1461C67.7052 70.2495 67.615 70.3986 67.4115 70.5861C67.1189 70.8366 66.8062 71.0625 66.4765 71.2618C66.2716 71.3986 66.0426 71.544 65.7894 71.6978C65.5357 71.8485 65.2621 72.0146 64.9717 72.1976C64.3842 72.549 63.7257 72.9599 63.0041 73.4125C62.2876 73.8753 61.51 74.3825 60.7037 74.9613L60.0896 75.4016L59.4702 75.8727C59.0456 76.1836 58.6358 76.5359 58.203 76.8791C57.3596 77.5926 56.5023 78.3669 55.665 79.2134C54.8105 80.0882 54.0112 81.0152 53.2715 81.989C52.5157 82.993 51.8023 84.045 51.1635 85.0636C50.5266 86.0904 49.952 87.1061 49.4326 88.0894C48.9133 89.0727 48.4679 90.0353 48.059 90.9422C47.6646 91.855 47.305 92.7133 47.0032 93.5104C46.8498 93.9083 46.701 94.2874 46.5728 94.651C46.4401 95.0134 46.3074 95.3545 46.197 95.6778C45.9581 96.3208 45.7623 96.8808 45.5794 97.3373C45.4464 97.6989 45.2869 98.0502 45.102 98.3882C44.9582 98.6246 44.831 98.7426 44.722 98.7267Z" fill="#F04E23"/>
<path d="M93.4635 136.4C93.3876 136.49 93.2935 136.563 93.1872 136.614C93.081 136.665 92.9651 136.693 92.8472 136.697C92.6971 136.709 92.546 136.699 92.3987 136.668C92.2214 136.634 92.0483 136.581 91.8825 136.509C91.47 136.33 91.0896 136.085 90.7565 135.783C90.5614 135.609 90.3798 135.42 90.2132 135.218C89.8522 134.788 89.5598 134.304 89.3465 133.785C89.2454 133.544 89.1626 133.295 89.0989 133.042C88.9866 132.607 88.9465 132.156 88.98 131.708C88.9939 131.528 89.0272 131.35 89.0795 131.177C89.1203 131.033 89.1821 130.894 89.2629 130.767C89.3205 130.664 89.3993 130.575 89.4941 130.505C89.5889 130.435 89.6975 130.386 89.8128 130.36C90.0449 130.329 90.2806 130.381 90.4776 130.508C90.5947 130.579 90.7061 130.659 90.8106 130.747C90.9266 130.847 91.0373 130.954 91.1424 131.065C91.3799 131.324 91.6001 131.598 91.8016 131.886C91.9155 132.037 92.0171 132.201 92.131 132.366C92.2371 132.535 92.3515 132.705 92.4555 132.888C92.5686 133.064 92.6678 133.245 92.7666 133.418C92.8594 133.596 92.9576 133.763 93.0388 133.933C93.1996 134.245 93.3399 134.568 93.459 134.898C93.5089 135.043 93.5514 135.19 93.5864 135.34C93.6155 135.473 93.6341 135.609 93.6418 135.745C93.6617 135.977 93.5985 136.209 93.4635 136.4Z" fill="#F04E23"/>
<path d="M88.0575 137.385C87.8707 137.525 87.6487 137.612 87.4159 137.634C87.1832 137.657 86.9487 137.615 86.7382 137.513C86.1616 137.238 85.6929 136.78 85.4057 136.209C85.1185 135.639 85.0292 134.989 85.1517 134.362C85.1954 134.133 85.3015 133.92 85.4584 133.747C85.6153 133.574 85.8169 133.447 86.041 133.381C86.2592 133.339 86.4837 133.343 86.7003 133.392C86.9168 133.442 87.1206 133.537 87.2985 133.67C87.7043 133.954 88.0332 134.334 88.256 134.776C88.4787 135.218 88.5882 135.709 88.5747 136.204C88.5755 136.426 88.5299 136.646 88.4409 136.849C88.3518 137.052 88.2212 137.235 88.0575 137.385Z" fill="#F04E23"/>
<path d="M113.27 100.095C112.394 100.221 111.435 98.5758 111 96.4426C110.565 94.3094 110.811 92.4194 111.666 92.1948C112.092 92.0863 112.592 92.4269 113.046 93.0797C114.093 94.7698 114.5 96.7782 114.195 98.7424C114.033 99.5201 113.705 100.029 113.27 100.095Z" fill="#F04E23"/>
<path d="M103.573 120.145C103.287 119.867 103.062 119.531 102.913 119.161C102.768 118.8 102.679 118.42 102.648 118.033C102.616 117.653 102.639 117.271 102.715 116.898C102.753 116.713 102.805 116.531 102.87 116.354C103.007 115.993 103.199 115.656 103.439 115.354C103.558 115.207 103.688 115.069 103.828 114.942C104.109 114.685 104.426 114.471 104.768 114.304C105.117 114.132 105.489 114.015 105.874 113.955C106.268 113.893 106.672 113.915 107.058 114.018C107.446 114.124 107.8 114.331 108.083 114.618C108.381 114.926 108.597 115.305 108.712 115.718C108.845 116.192 108.878 116.689 108.808 117.177C108.771 117.447 108.708 117.712 108.62 117.969C108.435 118.517 108.147 119.024 107.77 119.463C107.595 119.67 107.399 119.86 107.187 120.03C106.803 120.34 106.359 120.566 105.882 120.695C105.468 120.808 105.032 120.816 104.615 120.718C104.223 120.622 103.864 120.425 103.573 120.145Z" fill="#F04E23"/>
</g>
<g clip-path="url(#clip3_1_629)">
<path d="M211.311 70.2929C219.768 63.9853 224.198 55.6187 221.206 51.6055C218.214 47.5923 208.933 49.4523 200.476 55.7599C192.02 62.0675 187.589 70.4342 190.581 74.4474C193.573 78.4606 202.854 76.6005 211.311 70.2929Z" fill="#04294F"/>
<path d="M238.872 84.972L219.67 57.7639C219.258 57.176 218.678 56.7265 218.006 56.4745C217.334 56.2225 216.601 56.1797 215.905 56.3519C207.841 58.3872 201.001 62.5281 196.209 70.1939C195.841 70.7889 195.658 71.4789 195.681 72.1777C195.704 72.8765 195.932 73.553 196.338 74.1226L215.595 101.408C216.142 102.182 216.974 102.708 217.908 102.869C218.842 103.03 219.802 102.813 220.576 102.267L238.013 89.9541C238.787 89.4073 239.313 88.5753 239.474 87.641C239.635 86.7068 239.419 85.7468 238.872 84.972Z" fill="#FFB400"/>
<path d="M234.991 105.184C243.448 98.8766 247.878 90.51 244.886 86.4968C241.894 82.4836 232.613 84.3436 224.156 90.6513C215.699 96.9589 211.269 105.326 214.261 109.339C217.253 113.352 226.534 111.492 234.991 105.184Z" fill="#F04E23"/>
<path d="M231.39 100.449C234.206 98.3487 235.682 95.5622 234.685 94.2257C233.689 92.8891 230.598 93.5086 227.781 95.6093C224.965 97.7101 223.489 100.497 224.486 101.833C225.482 103.17 228.573 102.55 231.39 100.449Z" fill="#04294F"/>
<path d="M244.565 85.9879C244.464 86.1274 243.911 85.8554 242.901 85.5746C242.293 85.406 241.672 85.2898 241.044 85.2274C240.863 85.2009 240.669 85.2083 240.475 85.1953C240.278 85.1919 240.08 85.1643 239.871 85.1773L239.229 85.2038C239.119 85.2096 239.009 85.2067 238.897 85.2189L238.555 85.2618C236.377 85.5474 234.258 86.1785 232.279 87.1313C229.801 88.3106 227.438 89.716 225.219 91.3297C222.831 93.0331 220.66 94.7802 218.962 96.6217C217.434 98.2094 216.15 100.015 215.153 101.98C214.502 103.309 214.058 104.73 213.837 106.193C213.679 107.24 213.696 107.84 213.544 107.881C213.395 107.928 213.066 107.335 212.951 106.178C212.836 104.539 213.081 102.894 213.669 101.36C214.538 99.1079 215.802 97.0293 217.402 95.2221C219.146 93.156 221.417 91.2473 223.906 89.4721C226.25 87.7674 228.78 86.3366 231.449 85.2075C233.941 84.1872 236.388 83.6598 238.474 83.6564L238.859 83.6511C238.986 83.6511 239.113 83.6675 239.237 83.6752L239.961 83.7353C240.194 83.7517 240.42 83.8108 240.639 83.846C240.857 83.8913 241.069 83.9178 241.269 83.9785C241.959 84.1522 242.624 84.4155 243.245 84.7617C244.261 85.3416 244.651 85.8782 244.565 85.9879Z" fill="#04294F"/>
<path d="M220.885 51.0969C220.785 51.2365 220.232 50.9645 219.221 50.6837C218.613 50.5152 217.992 50.399 217.364 50.3362C217.183 50.311 216.99 50.3174 216.795 50.3044C216.598 50.301 216.4 50.2734 216.191 50.2864L215.549 50.3129C215.44 50.3187 215.329 50.3158 215.217 50.3283L214.875 50.3709C212.697 50.6563 210.578 51.2874 208.599 52.2404C206.122 53.4196 203.758 54.825 201.539 56.4388C199.151 58.1411 196.98 59.8883 195.282 61.7297C193.754 63.317 192.47 65.1227 191.473 67.0877C190.823 68.4163 190.378 69.8366 190.156 71.2993C189.999 72.3461 190.016 72.9463 189.865 72.9876C189.717 73.0345 189.387 72.4414 189.272 71.2844C189.157 69.6458 189.402 68.0018 189.99 66.4679C190.858 64.216 192.122 62.1374 193.722 60.3301C195.466 58.264 197.737 56.3553 200.226 54.5798C202.57 52.8752 205.1 51.4444 207.769 50.3153C210.261 49.2942 212.707 48.7668 214.794 48.7634L215.18 48.7581C215.306 48.7581 215.433 48.7745 215.557 48.7822L216.28 48.842C216.514 48.8587 216.74 48.9178 216.959 48.9533C217.177 48.9986 217.389 49.0251 217.589 49.0857C218.279 49.2597 218.943 49.5229 219.565 49.8687C220.581 50.4506 220.971 50.9873 220.885 51.0969Z" fill="#F04E23"/>
<path d="M226.312 67.382C226.29 67.4405 226.161 67.4614 225.941 67.4519C225.832 67.4469 225.7 67.4333 225.547 67.4124L225.302 67.3751C225.215 67.3634 225.12 67.3592 225.021 67.3486C224.823 67.3298 224.605 67.3057 224.37 67.2763L223.598 67.2363C222.976 67.2172 222.354 67.2399 221.735 67.3041C221.392 67.3327 221.036 67.4071 220.665 67.4556L220.103 67.5798C219.912 67.6193 219.718 67.6609 219.523 67.7215L218.927 67.8881C218.727 67.9509 218.526 68.0246 218.321 68.0929C218.115 68.1612 217.908 68.2333 217.701 68.3204L217.071 68.5729C216.187 68.9609 215.324 69.3957 214.487 69.8755C213.617 70.3828 212.729 70.9552 211.859 71.576C211.022 72.1762 210.231 72.8385 209.492 73.5571C208.796 74.2254 208.142 74.9374 207.536 75.6888C206.943 76.4006 206.438 77.1261 205.967 77.8079C205.513 78.5013 205.1 79.1587 204.752 79.777C204.575 80.0848 204.405 80.3782 204.257 80.663C204.105 80.9456 203.956 81.2102 203.83 81.4648L203.158 82.7685C202.964 83.1248 202.822 83.4069 202.695 83.5896C202.569 83.7724 202.478 83.8603 202.418 83.8415C202.358 83.8227 202.335 83.6977 202.347 83.4755C202.37 83.1564 202.418 82.8397 202.492 82.5285C202.601 82.037 202.735 81.5513 202.893 81.0733C202.978 80.7912 203.089 80.4972 203.205 80.1841C203.321 79.871 203.455 79.5433 203.602 79.2024C203.925 78.4567 204.286 77.7281 204.683 77.0193C205.144 76.2033 205.655 75.416 206.212 74.6619C206.827 73.8208 207.506 73.0275 208.241 72.2888C209.029 71.4862 209.885 70.7531 210.799 70.0978C211.703 69.4519 212.643 68.8587 213.615 68.321C214.531 67.8237 215.478 67.3875 216.451 67.0154C216.686 66.9298 216.922 66.8538 217.153 66.7751C217.384 66.6964 217.614 66.6252 217.845 66.5656C218.076 66.506 218.3 66.439 218.524 66.3855L219.194 66.2493C219.41 66.2031 219.627 66.1678 219.846 66.1434L220.478 66.0639C220.896 66.0462 221.293 66.0078 221.676 66.0186C222.362 66.0233 223.047 66.0927 223.72 66.2258C224.015 66.2946 224.289 66.3534 224.536 66.4244C224.781 66.5085 225.001 66.5879 225.198 66.6628C225.296 66.7012 225.39 66.7335 225.474 66.7733L225.708 66.8954C225.851 66.9732 225.969 67.0434 226.063 67.1057C226.25 67.2304 226.335 67.3232 226.312 67.382Z" fill="#04294F"/>
<path d="M228.315 70.0774C228.308 70.1396 228.196 70.1913 227.992 70.2321C227.787 70.2728 227.49 70.3004 227.111 70.3396C226.922 70.355 226.714 70.3727 226.484 70.3984C226.256 70.4198 226.009 70.4408 225.745 70.4757C225.216 70.5287 224.621 70.6246 223.969 70.7372C223.318 70.8641 222.612 71.0243 221.868 71.2404C221.077 71.4727 220.299 71.7484 219.538 72.0663C218.694 72.418 217.869 72.8139 217.066 73.2522C216.224 73.7025 215.378 74.2206 214.524 74.7726C213.676 75.3387 212.857 75.9066 212.087 76.4943C211.312 77.0712 210.581 77.6598 209.884 78.2184C208.497 79.3497 207.264 80.4061 206.212 81.2817C205.161 82.1574 204.292 82.8562 203.661 83.3046C203.03 83.7531 202.639 83.9575 202.553 83.8662C202.467 83.7748 202.693 83.3965 203.173 82.791C203.654 82.1855 204.386 81.3474 205.33 80.3449C206.274 79.3423 207.432 78.1755 208.793 76.9449C209.479 76.3357 210.208 75.6999 211 75.0817C211.783 74.4532 212.635 73.8463 213.526 73.2511C214.402 72.6772 215.308 72.1505 216.24 71.6733C217.112 71.2242 218.013 70.8328 218.937 70.5017C219.776 70.1999 220.635 69.9573 221.508 69.7757C222.268 69.6219 223.038 69.517 223.812 69.4615C224.448 69.4209 225.086 69.4204 225.722 69.4599C226.002 69.4732 226.262 69.5023 226.5 69.5325C226.738 69.559 226.954 69.5942 227.147 69.6337C227.447 69.6837 227.742 69.7623 228.027 69.8684C228.223 69.9441 228.322 70.0148 228.315 70.0774Z" fill="#04294F"/>
<path d="M231.928 75.4433C231.941 75.568 231.535 75.7444 230.803 75.9542C230.434 76.0469 229.994 76.2067 229.479 76.3515L229.081 76.4657L228.663 76.6064L227.755 76.9057C227.439 77.0156 227.115 77.1491 226.773 77.2744C226.603 77.3398 226.429 77.3997 226.253 77.4717L225.724 77.7024C225.365 77.8598 224.989 78.0065 224.62 78.2001L224.052 78.4783C223.859 78.5702 223.664 78.6637 223.475 78.7757C223.094 78.9937 222.692 79.1942 222.302 79.4347C221.915 79.6813 221.507 79.9115 221.114 80.1798C220.725 80.4558 220.314 80.7136 219.922 81.0118L219.33 81.4621C219.13 81.6113 218.93 81.7628 218.739 81.9296C217.956 82.5698 217.22 83.2305 216.541 83.9025C215.856 84.5699 215.231 85.2515 214.649 85.9139C214.364 86.2512 214.086 86.5799 213.816 86.9001C213.557 87.2301 213.307 87.5503 213.064 87.8605C212.578 88.4798 212.167 89.0753 211.81 89.6299C211.25 90.5057 210.779 91.4357 210.404 92.4059C210.142 93.1004 210.011 93.5133 209.879 93.5033C209.761 93.4958 209.651 93.0548 209.713 92.2498C209.761 91.7634 209.854 91.2825 209.99 90.8131C210.171 90.1933 210.403 89.5895 210.684 89.008C211.02 88.3124 211.403 87.6399 211.828 86.9949L212.541 85.9338C212.799 85.5778 213.075 85.2186 213.355 84.8478C213.957 84.0815 214.598 83.3469 215.276 82.6469C216.005 81.8926 216.779 81.182 217.592 80.5189C217.795 80.3414 218.01 80.1801 218.224 80.0217L218.86 79.547C219.282 79.234 219.727 78.9643 220.149 78.6812C220.578 78.406 221.021 78.1707 221.444 77.9241C221.87 77.6836 222.309 77.4866 222.726 77.2762C222.934 77.1703 223.146 77.0792 223.357 76.9928L223.979 76.7343C224.384 76.5558 224.796 76.4278 225.188 76.2925L225.767 76.0975C225.958 76.0385 226.149 75.9916 226.335 75.941C226.707 75.8446 227.061 75.7431 227.405 75.6682L228.39 75.4827C228.545 75.4563 228.696 75.4255 228.843 75.4033L229.273 75.3553C229.745 75.294 230.22 75.2604 230.696 75.2547C231.482 75.2565 231.915 75.3183 231.928 75.4433Z" fill="#04294F"/>
</g>
<g clip-path="url(#clip4_1_629)">
<path d="M280.802 92.9345C287.52 84.4122 294.81 73.1432 301.774 67.0219C304.59 64.5472 327.272 48.3514 330.885 44.8005C335.016 40.7431 332.209 30.1743 321 18.3372C309.79 6.50015 303.09 5.2833 299.789 7.06315C298.171 7.93549 290.812 17.447 287.434 21.19C286.647 22.0648 286.076 22.6232 285.845 22.6843C285.624 22.7439 284.871 22.5374 283.72 22.1213C278.548 20.2492 265.312 14.1087 256.049 8.48463C245.022 1.79075 231.722 -0.797496 225.426 7.35357C211.591 8.66954 204.847 17.5872 202.029 21.1871C199.21 24.787 198.573 31.7034 199.453 33.5472C203.262 33.1912 217.355 37.2588 230.912 46.6595C244.469 56.0602 257.456 65.1787 258.7 76.8338C259.576 85.0389 257.401 91.064 249.049 93.9176C240.36 96.8872 236.554 92.9318 231.7 97.1989C225.102 102.998 231.647 114.065 247.771 114.113C264.311 114.16 273.819 101.793 280.802 92.9345Z" fill="#FFB400"/>
<path d="M242.532 106.953C241.998 108.372 239.809 108.865 237.647 108.054C235.485 107.242 234.166 105.434 234.702 104.014C235.237 102.595 237.424 102.102 239.586 102.914C241.749 103.725 243.068 105.533 242.532 106.953Z" fill="#F04E23"/>
<path d="M259.871 108.742C259.786 108.835 259.681 108.907 259.563 108.952C259.445 108.997 259.318 109.013 259.193 109C259.017 108.998 258.843 108.973 258.674 108.927C258.465 108.874 258.262 108.802 258.066 108.713C257.572 108.488 257.11 108.2 256.689 107.858C256.443 107.659 256.208 107.446 255.987 107.219C255.508 106.737 255.088 106.2 254.737 105.619C254.571 105.349 254.422 105.07 254.289 104.783C254.058 104.293 253.892 103.776 253.794 103.243C253.755 103.032 253.735 102.817 253.734 102.602C253.731 102.427 253.749 102.253 253.79 102.083C253.807 101.958 253.854 101.84 253.927 101.737C253.999 101.634 254.095 101.549 254.206 101.49C254.324 101.45 254.45 101.436 254.574 101.448C254.698 101.461 254.818 101.5 254.926 101.563C255.073 101.636 255.215 101.721 255.348 101.817C255.496 101.922 255.642 102.049 255.803 102.188C256.15 102.507 256.479 102.847 256.788 103.204C256.964 103.395 257.132 103.605 257.313 103.816C257.487 104.032 257.671 104.253 257.847 104.487C258.031 104.715 258.2 104.946 258.368 105.168C258.528 105.395 258.692 105.609 258.836 105.825C259.107 106.211 259.356 106.613 259.582 107.027C259.678 107.215 259.766 107.389 259.831 107.557C259.892 107.71 259.94 107.867 259.975 108.028C260.01 108.148 260.019 108.273 260.001 108.396C259.983 108.519 259.938 108.637 259.871 108.742Z" fill="#F04E23"/>
<path d="M262.292 104.863C261.626 105.448 260.403 105.148 259.558 104.192C258.714 103.237 258.57 101.989 259.235 101.404C259.9 100.819 261.124 101.119 261.968 102.074C262.813 103.03 262.956 104.278 262.292 104.863Z" fill="#F04E23"/>
</g>
<defs>
<clipPath id="clip0_1_629">
<rect width="156.478" height="138.147" fill="white" transform="translate(85.0914 58.8548)"/>
</clipPath>
<clipPath id="clip1_1_629">
<rect width="141.601" height="111.846" fill="white" transform="translate(190.827 2)"/>
</clipPath>
<clipPath id="clip2_1_629">
<rect width="111.581" height="103.876" fill="white" transform="translate(3 66.2922)"/>
</clipPath>
<clipPath id="clip3_1_629">
<rect width="56.5873" height="62.6976" fill="white" transform="translate(189.233 48.7581)"/>
</clipPath>
<clipPath id="clip4_1_629">
<rect width="77.8407" height="22.0504" fill="white" transform="translate(191.093 92.0624)"/>
</clipPath>
</defs>
</svg>
